<?xml version="1.0" encoding="utf-8"?>
<!-- Generator: Adobe Illustrator 26.0.1, SVG Export Plug-In . SVG Version: 6.00 Build 0)  -->
<svg version="1.1" id="Layer_1" xmlns="http://www.w3.org/2000/svg" xmlns:xlink="http://www.w3.org/1999/xlink" x="0px" y="0px"
	 viewBox="0 0 700 700" style="enable-background:new 0 0 700 700;" xml:space="preserve">
<style type="text/css">
	.st0{fill:#707070;}
</style>
<g>
	<path class="st0" d="M562.7,153.3l-210-49.4c-1.8-0.5-3.6-0.5-5.4,0l-210,49.4c-5.4,1.3-9.1,6.1-9,11.7v154.6
		c-0.2,64.1,21.4,126.3,61.2,176.5c39.8,50.2,95.4,85.5,157.8,100c1.8,0.5,3.6,0.5,5.4,0c62.4-14.5,118-49.7,157.8-100
		c39.8-50.2,61.3-112.5,61.2-176.5V164.7C571.7,159.3,568,154.5,562.7,153.3L562.7,153.3z M548.3,319.5c0.2,58.3-19.3,115-55.3,161
		c-36,45.9-86.4,78.4-143.1,92.2c-56.7-13.8-107.1-46.3-143-92.2c-36-45.9-55.4-102.6-55.3-161V173.9L350,127.3l198.3,46.7
		L548.3,319.5z"/>
	<path class="st0" d="M287,238v14h-39.7c-6.4,0-11.7,5.2-11.7,11.7v168c0,3.1,1.2,6.1,3.4,8.2c2.2,2.2,5.2,3.4,8.2,3.4h205.3
		c3.1,0,6.1-1.2,8.2-3.4c2.2-2.2,3.4-5.2,3.4-8.2v-168c0-3.1-1.2-6.1-3.4-8.3c-2.2-2.2-5.2-3.4-8.2-3.4H413v-14
		c0-22.5-12-43.3-31.5-54.6s-43.5-11.3-63,0S287,215.5,287,238L287,238z M441,420H259V275.3h182V420z M389.7,238v14h-79.3v-14
		c0-14.2,7.6-27.3,19.8-34.4c12.3-7.1,27.4-7.1,39.7,0C382.1,210.7,389.7,223.8,389.7,238z"/>
	<path class="st0" d="M350,294.5c-10.6-0.1-20.5,4.8-26.9,13.2c-6.4,8.4-8.3,19.4-5.3,29.5s10.6,18.2,20.6,21.8v26
		c0,6.4,5.2,11.7,11.7,11.7s11.7-5.2,11.7-11.7v-26c9.9-3.6,17.6-11.7,20.6-21.8c3-10.1,1-21.1-5.3-29.5
		C370.5,299.3,360.6,294.3,350,294.5L350,294.5z M350,317.8L350,317.8c4.1,0,7.7,2.4,9.3,6.2c1.6,3.8,0.7,8.1-2.2,10.9
		c-2.9,2.9-7.2,3.7-10.9,2.2c-3.8-1.6-6.2-5.2-6.2-9.3c0-2.7,1-5.2,2.9-7.1C344.8,318.8,347.3,317.8,350,317.8L350,317.8z"/>
</g>
</svg>
