<?xml version="1.0" encoding="utf-8"?>
<!-- Generator: Adobe Illustrator 26.0.1, SVG Export Plug-In . SVG Version: 6.00 Build 0)  -->
<svg version="1.1" xmlns="http://www.w3.org/2000/svg" xmlns:xlink="http://www.w3.org/1999/xlink" x="0px" y="0px"
	 viewBox="0 0 700 700" style="enable-background:new 0 0 700 700;" xml:space="preserve">
<style type="text/css">
	.st0{fill:#707070;}
	.st1{display:none;}
	.st2{display:inline;fill:none;stroke:#000000;stroke-width:19;stroke-linecap:round;stroke-miterlimit:10;}
</style>
<g id="Layer_1">
	<g>
		<path class="st0" d="M396.9,455c0,18.6,7.4,36.4,20.5,49.5c13.1,13.1,30.9,20.5,49.5,20.5c18.6,0,36.4-7.4,49.5-20.5
			c13.1-13.1,20.5-30.9,20.5-49.5s-7.4-36.4-20.5-49.5c-13.1-13.1-30.9-20.5-49.5-20.5c-18.6,0-36.4,7.4-49.5,20.5
			C404.2,418.6,396.9,436.4,396.9,455z M466.9,402.5c13.9,0,27.3,5.5,37.1,15.4c9.8,9.8,15.4,23.2,15.4,37.1s-5.5,27.3-15.4,37.1
			c-9.8,9.8-23.2,15.4-37.1,15.4c-13.9,0-27.3-5.5-37.1-15.4c-9.8-9.8-15.4-23.2-15.4-37.1s5.5-27.3,15.4-37.1
			C439.6,408,452.9,402.5,466.9,402.5z"/>
		<path class="st0" d="M452.3,477.7c1.6,1.6,3.9,2.6,6.2,2.6c2.3,0,4.5-0.9,6.2-2.6l33-33h0c1.8-1.6,2.8-3.9,2.9-6.3
			c0.1-2.4-0.9-4.7-2.5-6.4c-1.7-1.7-4-2.6-6.4-2.6s-4.7,1.1-6.3,2.9l-26.8,26.8L445.4,446c-1.6-1.8-3.9-2.8-6.3-2.9
			s-4.7,0.9-6.4,2.6c-1.7,1.7-2.6,4-2.5,6.4s1.1,4.7,2.9,6.3L452.3,477.7z"/>
		<path class="st0" d="M465.4,332.5c-13.1,0-26.2-7.4-26.2-21c0-4.8-3.9-8.8-8.8-8.8s-8.8,3.9-8.8,8.8c0,21.6,16.4,34.4,35,37.7v9.6
			c0,4.8,3.9,8.8,8.8,8.8s8.8-3.9,8.8-8.8v-9.2c20.3-2.9,35-16.8,35-37.1c0-22.8-21.4-31.2-38.7-37.9c-17.2-6.7-26.9-11.2-26.9-20.6
			c0-15,14.8-19,23.5-19s22.5,3.7,22.5,17.5c0,4.8,3.9,8.7,8.8,8.7c4.8,0,8.8-3.9,8.8-8.7c0-20.4-15.7-32.2-33.1-34.7l0-7.8
			c0-4.8-3.9-8.8-8.8-8.8c-4.8,0-8.8,3.9-8.8,8.8v8.8c-16.4,3.6-30.6,15.6-30.6,35.4c0,21.9,21,30.3,38,36.9
			c16.9,6.6,27.8,11.3,27.8,21.4C491.7,326.5,479.6,332.5,465.4,332.5L465.4,332.5z"/>
		<path class="st0" d="M561.7,122.5H369.2c-7,0-13.6,2.8-18.6,7.7s-7.7,11.6-7.7,18.6v188.1c0,4.8,3.9,8.8,8.8,8.8s8.8-3.9,8.8-8.8
			V148.8c0-4.8,3.9-8.8,8.8-8.8h39.4v8.8c0,7,2.8,13.6,7.7,18.6s11.6,7.7,18.6,7.7H496c7,0,13.6-2.8,18.6-7.7
			c4.9-4.9,7.7-11.6,7.7-18.6V140h39.4c2.3,0,4.5,0.9,6.2,2.6s2.6,3.9,2.6,6.2v402.5c0,2.3-0.9,4.5-2.6,6.2s-3.9,2.6-6.2,2.6H369.2
			c-4.8,0-8.8-3.9-8.8-8.8v-30.6c0-4.8-3.9-8.8-8.8-8.8s-8.8,3.9-8.8,8.8v30.6c0,7,2.8,13.6,7.7,18.6s11.6,7.7,18.6,7.7h192.5
			c7,0,13.6-2.8,18.6-7.7s7.7-11.6,7.7-18.6V148.8c0-7-2.8-13.6-7.7-18.6S568.6,122.5,561.7,122.5L561.7,122.5z M504.8,148.8
			c0,2.3-0.9,4.5-2.6,6.2s-3.9,2.6-6.2,2.6h-61.2c-4.8,0-8.8-3.9-8.8-8.8V140h78.8V148.8z"/>
		<path class="st0" d="M359.3,460.4c5.3-10.9,9.8-22.3,13.5-33.9c3.5-9.4,2.5-19.9-2.7-28.4c-5.8-9.5-14.8-16.7-25.3-20.3
			c0-17-15.3-28.4-30.6-35.4c-3.1-12.6-12-23.1-24-28.3c11.2-26.7,24.4-59.9,28.3-74c6.6-23.4,13.9-47-11.1-56.3
			c-23.4-8.8-37.5,19.1-44.4,32.4c-33.3,65-52.5,95.4-52.5,95.8c-7.8,12.6-9.6,15-12.2,15.6h0c-5.3-7.7-9.9-15.9-13.6-24.5
			c-13.9-28.6-30.6-39.4-49.7-32.3c-22.9,8.6-28.3,31.7-17.5,54.7c15.1,32.5,13.4,75.2,9.7,110.6c-2.3,22.4,3.3,40,16.6,52.5h0
			c-0.8,4.2-2,8.3-3.6,12.2c-1.1,2.9-0.6,6.1,1.2,8.5c1.9,2.4,4.9,3.7,7.9,3.4c19.3-1.4,38.7,1.4,56.9,8.2
			c22.1,9.2,42.3,22.3,59.7,38.8c1.8,1.8,4.3,2.7,6.8,2.5c2.5-0.2,4.8-1.5,6.3-3.5c15.8-21.9,8.3-14.4,19.3-23.9
			c27-23.4,45.1-42.1,60.7-74.4L359.3,460.4z M354.9,407.1c2.6,4.2,3,9.4,1.1,14c-3.4,10.7-7.6,21.2-12.4,31.3
			c-3.2,4.5-9.1,6.2-14.1,3.9c-4.9-2.7-8.3-7.6-9-13.1c3.5-3.8,6.2-8.3,8-13.1c5.1-13.6,9.5-22.9,12.9-34.1
			C347,398.2,351.6,402.1,354.9,407.1L354.9,407.1z M326.5,374.1c2.2,4.4-1,14.3-3.2,21c-1.6,4.9-6.7,16.4-11.1,28.5
			c-2.4,6.6-7.5,12.6-14.5,11.8c-2.9-0.5-5.5-1.7-7.8-3.6c-2.2-1.9-3.9-4.3-4.9-7c3.5-3.2,6.2-7.1,7.9-11.6
			c20.2-50.9,19.3-49.1,20.2-51.4C318.7,364.5,323.4,368.8,326.5,374.1L326.5,374.1z M295.1,341.8c6.7,12.6-2.5,21.1-18.5,65.1
			c-2.6,6.6-6.9,8-12.2,5.4c-3-1.9-5.3-4.6-6.6-7.9c-1.3-3.3-1.5-6.9-0.6-10.3c4.4-14.9,22.3-55.2,25.9-63.6h0
			C288.2,332.9,292.5,336.8,295.1,341.8L295.1,341.8z M287,521.4c-12.1,10.5-8.5,7.5-16.4,18.9l0,0c-17.3-15.1-36.9-27.2-58.1-35.8
			c-16.7-6.3-34.3-9.6-52.1-9.8c2.9-12.7-1-15.9-3.1-17.5c-10.4-8.8-14.6-21.4-12.8-39.1c4-38.1,5.9-83.7-11.2-119.8
			c-5.9-12.7-5.9-25.8,7.4-30.6c3.8-1.4,13.9-5.2,27.9,23.5c6.9,14.3,7.4,13.1,24.9,53.8v0c2,4.2,7,6.1,11.3,4.2
			c4.3-1.8,6.4-6.7,4.7-11.1c-0.2-0.6-2.7-6.3-5.9-13.6c8.8-2.7,13.1-9.9,21.3-22.9c0.3-0.4,20-31.9,53.4-97
			c9.9-19.3,16.5-26.2,22.8-24c10.5,3.9,6,15,0.4,35c-5.1,18.2-28,73.4-38.5,97.5c-6.1,14-18.6,43.8-22.4,55.7v0
			c-2.2,7.4-1.8,15.3,1.2,22.4s8.3,13,15.1,16.7c3.7,1.8,7.7,2.7,11.8,2.8c2.1,5.8,5.8,10.9,10.6,14.7c4.8,3.9,10.6,6.3,16.7,7.1
			c3,0.4,6.1,0.2,9.1-0.5c2.9,8.7,9.2,15.9,17.5,19.9c2.8,1.2,5.7,2,8.8,2.4C318.7,492,303.8,507.9,287,521.4L287,521.4z"/>
		<path class="st0" d="M207.3,193.6V143c0-4.8-3.9-8.8-8.8-8.8s-8.8,3.9-8.8,8.8v50.5c0,4.8,3.9,8.8,8.8,8.8
			S207.3,198.4,207.3,193.6z"/>
		<path class="st0" d="M235.7,211.5l32.9-36.8c3.2-3.6,2.9-9.2-0.7-12.4c-3.6-3.2-9.2-2.9-12.4,0.7l-32.8,36.8
			c-3.2,3.6-2.9,9.2,0.7,12.4C227,215.4,232.5,215.1,235.7,211.5L235.7,211.5z"/>
		<path class="st0" d="M173.7,212.1c3.6-3.2,3.9-8.7,0.7-12.3L141.7,163c-3.2-3.6-8.8-4-12.4-0.7c-3.6,3.2-4,8.8-0.7,12.4l32.8,36.8
			v0c1.5,1.7,3.7,2.8,6,2.9C169.7,214.5,172,213.7,173.7,212.1L173.7,212.1z"/>
	</g>
</g>
<g id="Layer_2" class="st1">
	<path class="st2" d="M112.9,300l15.7,55.1l-3.2,59.2c-1,18.2,3.3,36.2,12.3,52l0,0c2.1,3.7,2.7,8.1,1.6,12.3l-2.3,8.5l32.7,6
		c23.4,4.3,45.6,13.5,65.2,27l25.5,17.7l8.7-10.6c1.2-1.4,2.4-2.7,3.7-4l38-37.1c11.7-11.4,20.9-25.1,27-40.2l19.6-48.2
		c1-2.4,1.1-5.1,0.3-7.5l0,0c-3.6-11.2-13.5-19.2-25.2-20.3l0,0l-2.6-8.8c-3.2-10.7-12.1-18.6-23.1-20.5l-3.6-0.6l-4.6-13.7
		c-3-9-10.2-15.9-19.3-18.7l-8.5-2.6L305,195c1.5-4.8,0.6-10.1-2.5-14.2l-0.1-0.2c-4-5.2-15-9.5-21.3-7.8c-0.6,0.2-1.2,0.3-1.8,0.5
		c-4.1,1.1-7.7,3.8-9.8,7.6l-77.7,152.9l-29.3-54.4c-4-6.5-10.5-11.1-17.9-12.7h0c-12.5-2.8-25.3,3.7-30.4,15.5l0,0
		C111.7,287.9,111.3,294.1,112.9,300z"/>
	<line class="st2" x1="188.1" y1="324.9" x2="196.9" y2="346.7"/>
	<path class="st2" d="M270.8,305.1l-27.8,67.4c-1.8,4.3-1.9,9.2-0.2,13.5l1.4,3.7c3.5,9.3,13.6,14.2,23.1,11.2l0,0
		c4.8-1.5,8.7-5,11-9.5l25.1-51.3"/>
	<path class="st2" d="M272.4,398.2l-0.2,2.2c-0.9,12.5,9.5,23.2,22,22c0.4,0,0.8-0.1,1.2-0.2h0c7.3-1.1,13.6-5.7,16.9-12.3l20.2-40"
		/>
	<path class="st2" d="M309.4,414.3L309.4,414.3c-3.2,9,0.7,19.1,9.2,23.5c6.5,3.3,14.2,4.2,21.6,2.1h0"/>
	<path class="st2" d="M340.2,324.9V135.6c0-11.3,9.2-20.5,20.5-20.5h183.7c11.3,0,20.5,9.2,20.5,20.5v402.5
		c0,11.3-9.2,20.5-20.5,20.5H360.7c-11.3,0-20.5-9.2-20.5-20.5v-35.9"/>
	<path class="st2" d="M498.7,115.1v16.1c0,7.6-6.1,13.7-13.7,13.7h-67.4c-7.6,0-13.7-6.1-13.7-13.7v-16.1"/>
	<circle class="st2" cx="456.4" cy="439.7" r="61.2"/>
	<polyline class="st2" points="427.9,439.7 446.3,456.2 483.1,422.4 	"/>
	<line class="st2" x1="121.9" y1="153" x2="157" y2="191.1"/>
	<line class="st2" x1="186.8" y1="127.3" x2="188.1" y2="179.1"/>
	<line class="st2" x1="251.8" y1="152.3" x2="218.5" y2="191.9"/>
</g>
</svg>
