<?xml version="1.0" encoding="utf-8"?>
<!-- Generator: Adobe Illustrator 26.0.1, SVG Export Plug-In . SVG Version: 6.00 Build 0)  -->
<svg version="1.1" id="Layer_1" xmlns="http://www.w3.org/2000/svg" xmlns:xlink="http://www.w3.org/1999/xlink" x="0px" y="0px"
	 viewBox="0 0 700 700" style="enable-background:new 0 0 700 700;" xml:space="preserve">
<style type="text/css">
	.st0{display:none;fill:#707070;}
	.st1{fill:#707070;}
</style>
<g>
	<g>
		<g>
			<path class="st0" d="M455,551.2H327.4l11.3-11.3c3.4-3.4,3.4-9,0-12.4l-105-105c-1.6-1.6-3.9-2.6-6.2-2.6H96.2v-17.5H78.7V560
				h17.5v-17.5h75.6l93.8,76.8c1.6,1.3,3.5,2,5.5,2H455c4.8,0,8.8-3.9,8.8-8.8V560C463.7,555.2,459.8,551.2,455,551.2L455,551.2z
				 M446.3,603.7H274.4L180.5,527c-1.6-1.3-3.5-2-5.5-2H96.2v-87.5h127.6l96.2,96.3l-22.6,22.6l-46.3-46.3l-12.4,12.4l52.5,52.5
				c1.7,1.7,3.9,2.6,6.2,2.6s4.5-0.9,6.2-2.6l6.2-6.2h136.4L446.3,603.7z"/>
		</g>
		<g>
			<path class="st1" d="M603.8,474.1V385c0-67.6-54.9-122.5-122.5-122.5S358.8,317.4,358.8,385v89.1c-10.2,3.6-17.5,13.2-17.5,24.6
				c0,14.5,11.8,26.2,26.2,26.2H595c14.5,0,26.2-11.8,26.2-26.2C621.3,487.4,613.9,477.7,603.8,474.1z M595,507.5H367.5
				c-4.8,0-8.8-3.9-8.8-8.8s3.9-8.8,8.8-8.8h26.2v-17.5h-17.5V385c0-57.9,47.1-105,105-105s105,47.1,105,105v87.5h-17.5V490H595
				c4.8,0,8.8,3.9,8.8,8.8S599.8,507.5,595,507.5z"/>
		</g>
		<g>
			<path class="st1" d="M481.3,350c9.7,0,17.5,7.8,17.5,17.5h17.5c0-16.3-11.2-29.8-26.2-33.8V315h-17.5v18.7
				c-15.1,3.9-26.2,17.5-26.2,33.8c0,19.3,15.7,35,35,35c9.7,0,17.5,7.8,17.5,17.5s-7.8,17.5-17.5,17.5s-17.5-7.8-17.5-17.5h-17.5
				c0,16.3,11.2,29.8,26.2,33.8v18.7H490v-18.7c15.1-3.9,26.2-17.5,26.2-33.8c0-19.3-15.7-35-35-35c-9.7,0-17.5-7.8-17.5-17.5
				S471.6,350,481.3,350z"/>
		</g>
		<g>
			<path class="st1" d="M526.7,245h-15.4l21.8-58.2c1.2-3.2,0.4-6.9-2.1-9.3c-2.5-2.4-6.2-3.1-9.4-1.9l-40.5,16.2l-40.5-16.2
				c-3.2-1.3-6.9-0.6-9.4,1.9c-2.5,2.4-3.3,6.1-2.1,9.3l21.8,58.2h-15.4c-3.9,0-7,3.1-7,7v3.5c0,3.9,3.1,7,7,7h91c3.9,0,7-3.1,7-7
				l0-3.5C533.8,248.1,530.6,245,526.7,245z M469.8,245l-17.2-45.8l25.3,10.1c2.1,0.8,4.4,0.8,6.5,0l25.3-10.1L492.7,245H469.8z"/>
		</g>
		<g>
			<path class="st1" d="M218.8,358.7c27,0,53.2-7.7,75.8-22.4l52.1,21.7c1.1,0.5,2.2,0.7,3.4,0.7c2.3,0,4.5-0.9,6.2-2.6
				c2.5-2.5,3.3-6.3,1.9-9.6l-21.7-52.1c14.6-22.7,22.4-48.8,22.4-75.8c0-77.2-62.8-140-140-140s-140,62.8-140,140
				S141.6,358.8,218.8,358.7L218.8,358.7z M218.8,96.2c67.6,0,122.5,54.9,122.5,122.5c0,25.1-7.6,49.2-21.9,69.8
				c-1.7,2.4-2,5.6-0.9,8.4l15.3,36.8l-36.8-15.3c-2.8-1.2-5.9-0.8-8.4,0.9c-20.6,14.4-44.8,21.9-69.8,21.9
				c-67.6,0-122.5-54.9-122.5-122.5S151.2,96.3,218.8,96.2L218.8,96.2z"/>
		</g>
		<g>
			<path class="st1" d="M175,210c19.3,0,35-15.7,35-35s-15.7-35-35-35s-35,15.7-35,35S155.7,210,175,210z M175,157.5
				c9.7,0,17.5,7.8,17.5,17.5c0,9.7-7.8,17.5-17.5,17.5s-17.5-7.8-17.5-17.5C157.5,165.3,165.3,157.5,175,157.5z"/>
		</g>
		<g>
			<path class="st1" d="M262.5,227.5c-19.3,0-35,15.7-35,35s15.7,35,35,35s35-15.7,35-35S281.8,227.5,262.5,227.5z M262.5,280
				c-9.7,0-17.5-7.8-17.5-17.5c0-9.7,7.8-17.5,17.5-17.5c9.7,0,17.5,7.8,17.5,17.5C280,272.2,272.2,280,262.5,280z"/>
		</g>
		<g>
			<path class="st1" d="M142.6,282.6l140-140l12.4,12.4l-140,140L142.6,282.6z"/>
		</g>
	</g>
	<g>
		<path class="st1" d="M293.8,562.5c-6.4,0-12.9-2.1-18.2-6.5l-52.1-42.8c-3.4-2.8-3.9-7.8-1.1-11.3c2.8-3.4,7.8-3.9,11.3-1.1
			l52.1,42.8c5.2,4.3,12.9,3.8,17.4-1.2c4.6-5,4.5-12.8-0.4-17.6l-57.5-57.5c-14.4-14.4-33.5-22.3-53.8-22.3H114
			c-12,0-23.6-5-31.8-13.7c-3-3.2-2.9-8.3,0.3-11.3c3.2-3,8.3-2.9,11.3,0.3c5.2,5.5,12.5,8.7,20.1,8.7h77.4c24.6,0,47.7,9.6,65.1,27
			l57.5,57.5c10.9,10.9,11.3,28.4,0.8,39.8C309.3,559.4,301.6,562.5,293.8,562.5z"/>
	</g>
	<g>
		<path class="st1" d="M88.1,555.9c-0.2,0-0.5,0-0.7,0c-4.4-0.4-7.7-4.3-7.3-8.7l2.9-34.1c1.2-14,1.3-28.2,0.3-42.1l-3.2-44.7
			c-0.3-4.4,3-8.2,7.4-8.6c4.4-0.3,8.2,3,8.6,7.4l3.2,44.7c1.1,14.8,1,29.9-0.3,44.7l-2.9,34.1C95.7,552.8,92.2,555.9,88.1,555.9z"
			/>
	</g>
	<g>
		<path class="st1" d="M290.1,619.4c-13.1,0-25.9-4.3-36.4-12.4l-66.5-51.1c-9-6.9-20.3-10.8-31.7-10.8h-41.8
			c-7.4,0-14.6,3-19.8,8.4c-3.1,3.2-8.2,3.3-11.3,0.2c-3.2-3.1-3.3-8.1-0.2-11.3l0.1-0.1c8.2-8.4,19.6-13.2,31.3-13.2h41.8
			c14.9,0,29.6,5,41.4,14.1l66.5,51.1c8.2,6.3,18.4,9.5,28.8,9l142-7.1c6.8-0.3,12.1-5.9,12.1-12.7c0-6.7-5.3-12.3-12-12.7
			l-141.2-8.3c-4.4-0.3-7.8-4-7.5-8.5c0.3-4.4,4-7.8,8.5-7.5l141.2,8.3c15.2,0.9,27,13.5,27,28.7c0,15.3-12,27.9-27.3,28.7l-142,7.1
			C292,619.3,291.1,619.4,290.1,619.4z"/>
	</g>
</g>
</svg>
